<?xml version="1.0" encoding="UTF-8" standalone="no"?> <!DOCTYPE svg PUBLIC "-//W3C//DTD SVG 1.1//EN" "http://www.w3.org/Graphics/SVG/1.1/DTD/svg11.dtd"> <!-- Generated by graphviz version 2.40.1 (20161225.0304) --> <!-- Title: G Pages: 1 --> <svg width="576pt" height="222pt" viewBox="0.00 0.00 575.98 221.60" xmlns="http://www.w3.org/2000/svg" xmlns:xlink="http://www.w3.org/1999/xlink"> <g id="graph0" class="graph" transform="scale(1 1) rotate(0) translate(4 217.6)"> <title>G</title> <polygon fill="#ffffff" stroke="transparent" points="-4,4 -4,-217.6 571.9797,-217.6 571.9797,4 -4,4"/> <!-- _:a --> <g id="node1" class="node"> <title>_:a</title> <ellipse fill="none" stroke="#000000" cx="208.682" cy="-195.6" rx="27" ry="18"/> <text text-anchor="middle" x="208.682" y="-191.4" font-family="Times,serif" font-size="14.00" fill="#000000">_:a</text> </g> <!-- Regina --> <g id="node2" class="node"> <title>Regina</title> <polygon fill="none" stroke="#000000" points="107.5466,-124.8 -.1826,-124.8 -.1826,-88.8 107.5466,-88.8 107.5466,-124.8"/> <text text-anchor="middle" x="53.682" y="-102.6" font-family="Times,serif" font-size="14.00" fill="#000000">Regina Schuster</text> </g> <!-- _:a&#45;&gt;Regina --> <g id="edge1" class="edge"> <title>_:a&#45;&gt;Regina</title> <path fill="none" stroke="#000000" d="M182.1224,-191.5429C147.2997,-185.7331 88.766,-174.1238 72.879,-159.6 65.7656,-153.097 61.2835,-143.7477 58.4612,-134.7182"/> <polygon fill="#000000" stroke="#000000" points="61.7999,-133.6472 55.9281,-124.8283 55.0188,-135.384 61.7999,-133.6472"/> <text text-anchor="middle" x="139.5835" y="-147" font-family="Times,serif" font-size="14.00" fill="#000000">http://schema.org/name</text> </g> <!-- Person --> <g id="node3" class="node"> <title>Person</title> <ellipse fill="none" stroke="#000000" cx="208.682" cy="-106.8" rx="68.9177" ry="18"/> <text text-anchor="middle" x="208.682" y="-102.6" font-family="Times,serif" font-size="14.00" fill="#000000">schema:Person</text> </g> <!-- _:a&#45;&gt;Person --> <g id="edge2" class="edge"> <title>_:a&#45;&gt;Person</title> <path fill="none" stroke="#000000" d="M208.682,-177.2006C208.682,-165.0949 208.682,-149.0076 208.682,-135.2674"/> <polygon fill="#000000" stroke="#000000" points="212.1821,-134.872 208.682,-124.872 205.1821,-134.8721 212.1821,-134.872"/> <text text-anchor="middle" x="235.8405" y="-140" font-family="Times,serif" font-size="14.00" fill="#000000">rdf:type</text> </g> <!-- Birth --> <g id="node4" class="node"> <title>Birth</title> <ellipse fill="none" stroke="#000000" cx="431.682" cy="-106.8" rx="136.0957" ry="18"/> <text text-anchor="middle" x="431.682" y="-102.6" font-family="Times,serif" font-size="14.00" fill="#000000">http://wikidata.org/entity/Q1731</text> </g> <!-- _:a&#45;&gt;Birth --> <g id="edge3" class="edge"> <title>_:a&#45;&gt;Birth</title> <path fill="none" stroke="#000000" d="M232.1254,-186.2647C266.7538,-172.4754 332.493,-146.2977 379.0431,-127.7611"/> <polygon fill="#000000" stroke="#000000" points="380.3788,-130.9966 388.3744,-124.0454 377.789,-124.4933 380.3788,-130.9966"/> <text text-anchor="middle" x="391.9962" y="-147" font-family="Times,serif" font-size="14.00" fill="#000000">schema:birthPlace</text> </g> <!-- Dresden --> <g id="node5" class="node"> <title>Dresden</title> <polygon fill="none" stroke="#000000" points="405.824,-36 343.54,-36 343.54,0 405.824,0 405.824,-36"/> <text text-anchor="middle" x="374.682" y="-13.8" font-family="Times,serif" font-size="14.00" fill="#000000">Dresden</text> </g> <!-- Birth&#45;&gt;Dresden --> <g id="edge4" class="edge"> <title>Birth&#45;&gt;Dresden</title> <path fill="none" stroke="#000000" d="M392.1376,-89.4061C385.0614,-84.4464 378.6323,-78.2975 374.4926,-70.8 370.4425,-63.4649 369.3088,-54.6364 369.5252,-46.3162"/> <polygon fill="#000000" stroke="#000000" points="373.0254,-46.465 370.4034,-36.1998 366.0516,-45.8596 373.0254,-46.465"/> <text text-anchor="middle" x="412.7767" y="-58.2" font-family="Times,serif" font-size="14.00" fill="#000000">schema:name</text> </g> <!-- Place --> <g id="node6" class="node"> <title>Place</title> <ellipse fill="none" stroke="#000000" cx="487.682" cy="-18" rx="63.6774" ry="18"/> <text text-anchor="middle" x="487.682" y="-13.8" font-family="Times,serif" font-size="14.00" fill="#000000">schema:Place</text> </g> <!-- Birth&#45;&gt;Place --> <g id="edge5" class="edge"> <title>Birth&#45;&gt;Place</title> <path fill="none" stroke="#000000" d="M443.4179,-88.5082C447.0413,-82.8399 451.037,-76.5682 454.682,-70.8 460.0253,-62.3444 465.8172,-53.1032 471.0354,-44.7491"/> <polygon fill="#000000" stroke="#000000" points="474.1007,-46.4481 476.4242,-36.1112 468.1616,-42.743 474.1007,-46.4481"/> <text text-anchor="middle" x="486.8405" y="-58.2" font-family="Times,serif" font-size="14.00" fill="#000000">rdf:type</text> </g> </g> </svg>
